<svg xmlns="http://www.w3.org/2000/svg" width="187" height="81" viewBox="0 0 187 81">
  <g id="Group_203" data-name="Group 203" transform="translate(-55 13)">
    <g id="Group_23" data-name="Group 23" transform="translate(-66 -431)">
      <text id="FASHION" transform="translate(121 470)" fill="#2d4659" font-size="45" font-family="Roboto-Bold, Roboto" font-weight="700"><tspan x="0" y="0">FASHION</tspan></text>
      <text id="STORE" transform="translate(158 495)" fill="#819f7f" font-size="16" font-family="Roboto-Medium, Roboto" font-weight="500" letter-spacing="1em"><tspan x="0" y="0">STORE</tspan></text>
      <path id="Subtraction_1" data-name="Subtraction 1" d="M-361.844,18H-364V13.091a13.971,13.971,0,0,1,3.368-9.257A10.77,10.77,0,0,1-352.5,0a10.77,10.77,0,0,1,8.132,3.834A13.971,13.971,0,0,1-341,13.091V18h-2.156V13.091a11.351,11.351,0,0,0-2.737-7.521A8.751,8.751,0,0,0-352.5,2.454a8.75,8.75,0,0,0-6.607,3.116,11.349,11.349,0,0,0-2.737,7.521V18Z" transform="translate(568 418)" fill="#819f7f"/>
      <path id="Path_2" data-name="Path 2" d="M649.888,435.622" transform="translate(-445)" fill="none" stroke="#707070" stroke-width="1"/>
    </g>
  </g>
</svg>
